<svg width="742" height="859" viewBox="0 0 742 859" fill="none" xmlns="http://www.w3.org/2000/svg">
<circle cx="371" cy="488" r="371" fill="#BB0C0C"/>
<path d="M124.8 475.4C124.8 404.6 142.2 352 177 317.6C199.4 295.2 224.4 280.4 252 273.2C279.6 266 315.8 262.4 360.6 262.4C402.2 262.4 435.6 265.4 460.8 271.4C486.4 277 507.4 289.2 523.8 308C537.4 323.6 548 342.6 555.6 365C563.6 387 568.2 408.6 569.4 429.8H535.2C533.6 411.8 529.2 393.4 522 374.6C515.2 355.4 504.4 339 489.6 325.4C474.8 311.4 456 304.4 433.2 304.4C412 304.4 394.4 313.8 380.4 332.6C368.4 349 359.8 370.8 354.6 398C349.8 422 347.4 447.8 347.4 475.4C347.4 520.6 353 558.4 364.2 588.8C379 627.6 402 647 433.2 647V480.8H616.8V686C559.2 686 494 686.8 421.2 688.4L360.6 689C316.6 689 280.8 684.8 253.2 676.4C226 667.6 202.6 653.4 183 633.8C144.2 595 124.8 542.2 124.8 475.4Z" fill="#FEF0E0"/>
</svg>
